<svg xmlns="http://www.w3.org/2000/svg" xmlns:xlink="http://www.w3.org/1999/xlink" version="1.1" width="256" height="256" viewBox="0 0 256 256" xml:space="preserve">

<defs>
</defs>
<g style="stroke: none; stroke-width: 0; stroke-dasharray: none; stroke-linecap: butt; stroke-linejoin: miter; stroke-miterlimit: 10; fill: none; fill-rule: nonzero; opacity: 1;" transform="translate(1.4065934065934016 1.4065934065934016) scale(2.81 2.81)" >
	<circle cx="35.641999999999996" cy="49.001999999999995" r="25.732" style="stroke: none; stroke-width: 1; stroke-dasharray: none; stroke-linecap: butt; stroke-linejoin: miter; stroke-miterlimit: 10; fill: rgb(96,182,255); fill-rule: nonzero; opacity: 1;" transform="  matrix(1 0 0 1 0 0) "/>
	<path d="M 12.194 38.392 c 0.71 1.376 1.811 2.647 3.017 3.619 c 0.646 0.521 1.37 0.991 1.789 1.707 c 0.305 0.522 0.423 1.135 0.714 1.666 c 0.74 1.349 2.375 1.857 3.783 2.478 c 1.024 0.451 1.996 1.019 2.892 1.689 c 0.247 0.184 0.493 0.383 0.646 0.651 c 0.663 1.165 -0.808 2.439 -0.909 3.776 c -0.065 0.864 0.466 1.665 1.093 2.263 s 1.371 1.073 1.937 1.729 c 0.986 1.144 1.318 2.708 1.455 4.212 c 0.137 1.504 0.239 4.867 0.663 6.317 c 0.424 1.449 2.903 3.849 2.738 1.435 c -0.259 -1.3 -0.445 -2.852 0.518 -3.762 c 0.52 -0.491 1.264 -0.664 1.85 -1.074 c 1.659 -1.161 1.567 -3.749 2.976 -5.203 c 0.365 -0.376 0.819 -0.662 1.156 -1.063 c 0.678 -0.805 0.784 -1.931 0.859 -2.981 c 0.041 -0.566 0.075 -1.166 -0.193 -1.666 c -0.767 -1.433 -3.223 -0.937 -4.171 -2.257 c -0.366 -0.509 -0.413 -1.177 -0.68 -1.744 c -0.436 -0.927 -1.418 -1.486 -2.407 -1.754 c -0.989 -0.268 -2.026 -0.303 -3.03 -0.509 c -1.394 -0.287 -2.699 -0.9 -3.953 -1.572 c -1.301 -0.697 -2.731 -1.757 -2.661 -3.231 c 0.021 -0.443 0.201 -0.894 0.553 -1.164 c 0.529 -0.408 1.27 -0.319 1.939 -0.297 c 2.838 0.091 5.661 -1.564 6.968 -4.084 c 0.304 -0.587 0.555 -1.242 1.086 -1.634 c 0.324 -0.239 0.72 -0.353 1.099 -0.487 c 1.045 -0.369 2.027 -0.916 2.891 -1.611 c 0.169 -0.136 0.339 -0.286 0.419 -0.487 c 0.103 -0.261 0.035 -0.558 -0.073 -0.817 c -0.517 -1.23 -2.005 -1.96 -3.294 -1.614 c -0.864 0.232 -1.569 0.862 -2.415 1.154 c -0.845 0.292 -2.035 0.03 -2.204 -0.848 c -0.045 -0.233 -0.009 -0.473 0.039 -0.705 c 0.186 -0.91 0.543 -1.784 1.046 -2.564 c -2.416 -0.954 -5.81 -1.164 -8.374 -0.745 l -0.001 -0.002 c -2.103 1.324 -4.001 2.944 -5.635 4.801 C 14.647 33.911 13.252 36.058 12.194 38.392 z" style="stroke: none; stroke-width: 1; stroke-dasharray: none; stroke-linecap: butt; stroke-linejoin: miter; stroke-miterlimit: 10; fill: rgb(175,224,91); fill-rule: nonzero; opacity: 1;" transform=" matrix(1 0 0 1 0 0) " stroke-linecap="round" />
	<path d="M 54.412 66.603 c -1.506 -2.357 -2.941 -4.559 -2.886 -7.356 c 0.04 -2.011 0.926 -3.98 0.663 -5.974 c -0.041 -0.311 -0.114 -0.627 -0.297 -0.882 c -0.183 -0.254 -0.46 -0.423 -0.735 -0.574 c -1.415 -0.775 -2.998 -1.24 -4.607 -1.355 c -0.701 -0.05 -1.429 -0.039 -2.073 -0.319 c -1.222 -0.531 -1.799 -1.957 -1.936 -3.283 c -0.102 -0.991 -0.009 -2.052 0.558 -2.872 c 0.593 -0.857 1.628 -1.324 2.661 -1.463 c 1.033 -0.139 2.08 0.011 3.112 0.161 c 0.936 0.136 1.871 0.271 2.807 0.407 c 1.312 0.19 2.8 0.335 3.822 -0.509 c 0.729 -0.602 1.04 -1.663 0.752 -2.563 c -0.288 -0.9 -1.157 -1.584 -2.1 -1.651 c -0.749 -0.054 -1.472 0.245 -2.172 0.516 c -1.478 0.572 -2.995 1.043 -4.537 1.41 c -0.344 0.082 -0.72 0.156 -1.041 0.008 c -0.444 -0.205 -0.608 -0.741 -0.724 -1.217 c -0.184 -0.757 -0.365 -1.573 -0.076 -2.297 c 0.423 -1.06 1.647 -1.496 2.641 -2.056 c 0.994 -0.56 1.94 -1.762 1.361 -2.746 c -0.19 -0.323 -0.513 -0.543 -0.764 -0.822 c -0.885 -0.982 0.15 -2.745 1.268 -3.451 l -0.076 -0.052 c 6.845 4.624 11.345 12.455 11.345 21.337 C 61.375 55.811 58.731 62.002 54.412 66.603 L 54.412 66.603 z" style="stroke: none; stroke-width: 1; stroke-dasharray: none; stroke-linecap: butt; stroke-linejoin: miter; stroke-miterlimit: 10; fill: rgb(175,224,91); fill-rule: nonzero; opacity: 1;" transform=" matrix(1 0 0 1 0 0) " stroke-linecap="round" />
	<path d="M 35.643 75.734 c -14.74 0 -26.731 -11.991 -26.731 -26.731 c 0 -3.842 0.798 -7.55 2.372 -11.023 c 1.091 -2.407 2.532 -4.637 4.285 -6.629 c 1.704 -1.937 3.673 -3.614 5.854 -4.986 c 4.254 -2.678 9.172 -4.093 14.222 -4.093 c 5.356 0 10.525 1.579 14.947 4.566 c 7.38 4.986 11.785 13.272 11.785 22.166 c 0 6.82 -2.568 13.313 -7.232 18.285 C 50.107 72.655 43 75.734 35.643 75.734 z M 35.643 24.271 c -4.672 0 -9.222 1.309 -13.156 3.786 c -2.018 1.27 -3.84 2.823 -5.417 4.615 c -1.622 1.843 -2.956 3.906 -3.965 6.133 c -1.455 3.212 -2.193 6.643 -2.193 10.198 c 0 13.637 11.095 24.731 24.731 24.731 c 6.907 0 13.314 -2.775 18.041 -7.815 c 4.315 -4.599 6.691 -10.606 6.691 -16.916 c 0 -8.229 -4.076 -15.896 -10.904 -20.509 C 45.38 25.731 40.599 24.271 35.643 24.271 z" style="stroke: none; stroke-width: 1; stroke-dasharray: none; stroke-linecap: butt; stroke-linejoin: miter; stroke-miterlimit: 10; fill: rgb(18,34,46); fill-rule: nonzero; opacity: 1;" transform=" matrix(1 0 0 1 0 0) " stroke-linecap="round" />
	<path d="M 31.566 71.961 c -1.377 0 -2.904 -1.988 -3.253 -3.182 c -0.346 -1.183 -0.485 -3.336 -0.596 -5.066 c -0.036 -0.56 -0.068 -1.061 -0.103 -1.44 c -0.098 -1.074 -0.331 -2.622 -1.216 -3.65 c -0.282 -0.327 -0.641 -0.619 -1.021 -0.929 c -0.29 -0.235 -0.579 -0.473 -0.848 -0.729 c -0.996 -0.949 -1.48 -2.008 -1.4 -3.062 c 0.055 -0.733 0.377 -1.38 0.661 -1.951 c 0.307 -0.617 0.499 -1.038 0.375 -1.256 c -0.063 -0.109 -0.266 -0.262 -0.375 -0.344 c -0.834 -0.624 -1.741 -1.153 -2.696 -1.574 c -0.201 -0.089 -0.406 -0.175 -0.613 -0.262 c -1.333 -0.559 -2.843 -1.192 -3.643 -2.65 c -0.176 -0.321 -0.296 -0.649 -0.401 -0.939 c -0.095 -0.262 -0.186 -0.509 -0.299 -0.703 c -0.243 -0.415 -0.692 -0.763 -1.169 -1.132 l -0.385 -0.302 c -1.375 -1.108 -2.539 -2.507 -3.277 -3.939 c -0.253 -0.491 -0.061 -1.094 0.43 -1.347 c 0.49 -0.254 1.094 -0.062 1.347 0.43 c 0.614 1.19 1.593 2.362 2.755 3.299 l 0.354 0.278 c 0.578 0.447 1.233 0.955 1.671 1.704 c 0.205 0.35 0.335 0.71 0.452 1.028 c 0.082 0.226 0.161 0.452 0.275 0.662 c 0.464 0.845 1.532 1.293 2.664 1.768 c 0.218 0.092 0.435 0.183 0.646 0.275 c 1.093 0.481 2.131 1.088 3.087 1.803 c 0.313 0.234 0.668 0.521 0.916 0.956 c 0.66 1.16 0.091 2.302 -0.323 3.136 c -0.212 0.427 -0.432 0.868 -0.458 1.211 c -0.032 0.424 0.254 0.957 0.786 1.464 c 0.232 0.221 0.481 0.423 0.73 0.625 c 0.432 0.352 0.877 0.714 1.275 1.176 c 1.26 1.463 1.57 3.425 1.693 4.773 c 0.036 0.395 0.069 0.914 0.106 1.493 c 0.1 1.546 0.236 3.663 0.52 4.633 c 0.099 0.338 0.369 0.752 0.657 1.094 c -0.197 -1.397 -0.129 -2.844 0.954 -3.866 c 0.415 -0.393 0.889 -0.617 1.307 -0.815 c 0.245 -0.116 0.477 -0.227 0.656 -0.352 c 0.643 -0.45 0.951 -1.291 1.308 -2.266 c 0.343 -0.936 0.731 -1.996 1.523 -2.814 c 0.185 -0.189 0.387 -0.36 0.59 -0.53 c 0.199 -0.166 0.386 -0.322 0.52 -0.48 c 0.458 -0.544 0.555 -1.413 0.626 -2.409 c 0.028 -0.384 0.063 -0.861 -0.077 -1.122 c -0.179 -0.334 -0.678 -0.487 -1.479 -0.699 c -0.872 -0.23 -1.956 -0.518 -2.623 -1.445 c -0.317 -0.441 -0.455 -0.911 -0.576 -1.325 c -0.057 -0.196 -0.111 -0.394 -0.197 -0.577 c -0.253 -0.537 -0.896 -0.979 -1.764 -1.215 c -0.504 -0.136 -1.041 -0.207 -1.609 -0.281 c -0.456 -0.061 -0.912 -0.121 -1.362 -0.214 c -1.587 -0.327 -3.026 -1.028 -4.224 -1.671 c -2.189 -1.173 -3.262 -2.572 -3.188 -4.158 c 0.037 -0.781 0.38 -1.477 0.941 -1.909 c 0.756 -0.583 1.679 -0.544 2.354 -0.514 l 0.227 0.009 c 2.441 0.085 4.925 -1.38 6.048 -3.545 l 0.148 -0.296 c 0.28 -0.569 0.598 -1.215 1.232 -1.682 c 0.402 -0.296 0.829 -0.443 1.205 -0.572 l 0.155 -0.053 c 0.943 -0.333 1.817 -0.819 2.597 -1.447 c 0.033 -0.026 0.058 -0.047 0.078 -0.065 c -0.006 -0.02 -0.015 -0.044 -0.027 -0.072 c -0.322 -0.768 -1.31 -1.249 -2.113 -1.036 c -0.339 0.091 -0.693 0.294 -1.067 0.508 c -0.394 0.226 -0.801 0.459 -1.28 0.625 c -0.828 0.285 -1.78 0.209 -2.488 -0.2 c -0.547 -0.316 -0.911 -0.815 -1.025 -1.404 c -0.079 -0.403 -0.023 -0.78 0.041 -1.095 c 0.126 -0.62 0.32 -1.218 0.577 -1.789 c -2.02 -0.549 -4.593 -0.688 -6.764 -0.333 c -0.548 0.09 -1.059 -0.28 -1.148 -0.826 c -0.089 -0.545 0.281 -1.059 0.826 -1.148 c 2.952 -0.483 6.448 -0.168 8.902 0.802 c 0.279 0.11 0.494 0.339 0.585 0.625 c 0.092 0.285 0.05 0.597 -0.112 0.848 c -0.434 0.67 -0.747 1.438 -0.906 2.22 c -0.042 0.203 -0.043 0.283 -0.037 0.314 c 0.059 0.101 0.502 0.23 0.896 0.094 c 0.3 -0.104 0.61 -0.281 0.938 -0.469 c 0.447 -0.256 0.953 -0.547 1.544 -0.705 c 1.763 -0.472 3.77 0.512 4.475 2.193 c 0.241 0.572 0.269 1.102 0.081 1.573 c -0.162 0.407 -0.442 0.672 -0.721 0.896 c -0.958 0.771 -2.03 1.368 -3.187 1.775 l -0.17 0.059 c -0.264 0.091 -0.514 0.176 -0.669 0.291 c -0.241 0.178 -0.427 0.556 -0.624 0.955 l -0.167 0.334 c -1.489 2.868 -4.657 4.717 -7.888 4.624 l -0.25 -0.01 c -0.406 -0.017 -0.868 -0.038 -1.046 0.099 c -0.09 0.069 -0.156 0.238 -0.165 0.42 c -0.044 0.933 1.137 1.767 2.135 2.302 c 1.071 0.575 2.346 1.199 3.682 1.474 c 0.403 0.083 0.812 0.136 1.22 0.189 c 0.608 0.08 1.236 0.163 1.87 0.335 c 1.457 0.394 2.541 1.208 3.051 2.293 c 0.141 0.3 0.229 0.602 0.307 0.867 c 0.083 0.286 0.162 0.556 0.28 0.719 c 0.248 0.346 0.861 0.508 1.511 0.68 c 0.948 0.252 2.128 0.564 2.73 1.689 c 0.413 0.771 0.353 1.603 0.309 2.21 c -0.075 1.041 -0.178 2.468 -1.092 3.553 c -0.247 0.294 -0.524 0.524 -0.769 0.729 c -0.149 0.124 -0.3 0.248 -0.435 0.387 c -0.497 0.512 -0.78 1.288 -1.081 2.109 c -0.414 1.128 -0.881 2.406 -2.04 3.217 c -0.317 0.222 -0.651 0.38 -0.946 0.52 c -0.325 0.154 -0.606 0.288 -0.791 0.462 c -0.587 0.555 -0.443 1.747 -0.225 2.84 c 0.009 0.043 0.014 0.085 0.017 0.128 c 0.113 1.659 -0.804 2.004 -1.203 2.075 C 31.726 71.954 31.646 71.961 31.566 71.961 z" style="stroke: none; stroke-width: 1; stroke-dasharray: none; stroke-linecap: butt; stroke-linejoin: miter; stroke-miterlimit: 10; fill: rgb(18,34,46); fill-rule: nonzero; opacity: 1;" transform=" matrix(1 0 0 1 0 0) " stroke-linecap="round" />
	<path d="M 54.413 67.603 c -0.33 0 -0.653 -0.163 -0.844 -0.462 l -0.07 -0.109 c -1.491 -2.334 -3.033 -4.748 -2.973 -7.804 c 0.019 -0.944 0.2 -1.85 0.376 -2.725 c 0.219 -1.089 0.425 -2.117 0.295 -3.099 c -0.028 -0.216 -0.068 -0.36 -0.117 -0.429 c -0.071 -0.099 -0.304 -0.226 -0.403 -0.28 c -1.285 -0.704 -2.736 -1.131 -4.198 -1.235 l -0.354 -0.021 c -0.632 -0.034 -1.35 -0.074 -2.046 -0.377 c -1.404 -0.611 -2.327 -2.104 -2.532 -4.098 c -0.148 -1.437 0.098 -2.629 0.73 -3.543 c 0.695 -1.006 1.917 -1.693 3.351 -1.885 c 1.176 -0.158 2.351 0.013 3.388 0.162 l 2.807 0.407 c 1.157 0.168 2.348 0.284 3.04 -0.29 c 0.412 -0.34 0.6 -0.979 0.438 -1.488 c -0.163 -0.508 -0.687 -0.92 -1.219 -0.958 c -0.49 -0.028 -1.043 0.181 -1.631 0.409 L 52.34 39.82 c -1.511 0.585 -3.081 1.073 -4.666 1.451 c -0.361 0.087 -1.035 0.246 -1.693 -0.058 c -0.919 -0.425 -1.16 -1.413 -1.275 -1.888 c -0.191 -0.782 -0.452 -1.854 -0.034 -2.904 c 0.482 -1.206 1.616 -1.792 2.527 -2.264 c 0.188 -0.097 0.373 -0.192 0.551 -0.292 c 0.487 -0.274 0.912 -0.738 1.011 -1.103 c 0.037 -0.14 0.013 -0.209 -0.02 -0.265 c -0.049 -0.083 -0.17 -0.195 -0.298 -0.314 c -0.12 -0.112 -0.239 -0.225 -0.348 -0.346 c -0.466 -0.517 -0.666 -1.214 -0.563 -1.962 c 0.153 -1.106 0.992 -2.341 2.04 -3.003 c 0.469 -0.293 1.085 -0.155 1.38 0.312 s 0.155 1.084 -0.312 1.379 c -0.549 0.346 -1.054 1.057 -1.127 1.585 c -0.032 0.239 0.038 0.317 0.068 0.351 c 0.07 0.078 0.148 0.149 0.226 0.221 c 0.205 0.191 0.46 0.43 0.656 0.762 c 0.32 0.543 0.398 1.165 0.228 1.799 c -0.285 1.062 -1.199 1.898 -1.96 2.326 c -0.198 0.111 -0.404 0.219 -0.613 0.327 c -0.712 0.368 -1.384 0.716 -1.589 1.229 c -0.168 0.42 -0.045 1.014 0.119 1.689 c 0.102 0.415 0.172 0.534 0.204 0.567 c -0.003 -0.02 0.138 -0.042 0.359 -0.094 c 1.496 -0.356 2.979 -0.817 4.406 -1.37 l 0.107 -0.042 c 0.732 -0.284 1.56 -0.609 2.497 -0.54 c 1.344 0.096 2.569 1.06 2.98 2.344 c 0.411 1.284 -0.028 2.78 -1.067 3.639 c -1.325 1.096 -3.069 0.951 -4.602 0.728 l -2.807 -0.407 c -0.951 -0.138 -1.938 -0.281 -2.835 -0.159 c -0.877 0.117 -1.595 0.497 -1.971 1.041 c -0.441 0.636 -0.453 1.548 -0.386 2.2 c 0.048 0.463 0.286 2.01 1.34 2.469 c 0.367 0.159 0.849 0.187 1.359 0.215 l 0.387 0.023 c 1.746 0.124 3.48 0.634 5.017 1.476 c 0.378 0.207 0.769 0.455 1.064 0.864 c 0.331 0.459 0.431 0.982 0.478 1.337 c 0.174 1.31 -0.075 2.552 -0.316 3.753 c -0.165 0.826 -0.322 1.605 -0.337 2.371 c -0.049 2.451 1.206 4.414 2.658 6.688 l 0.07 0.11 c 0.297 0.465 0.161 1.084 -0.305 1.381 C 54.783 67.552 54.598 67.603 54.413 67.603 z" style="stroke: none; stroke-width: 1; stroke-dasharray: none; stroke-linecap: butt; stroke-linejoin: miter; stroke-miterlimit: 10; fill: rgb(18,34,46); fill-rule: nonzero; opacity: 1;" transform=" matrix(1 0 0 1 0 0) " stroke-linecap="round" />
	<path d="M 63.056 27.635 c 3.057 -7.725 -2.546 -17.121 -8.505 -19.93 c -9.053 -3.469 -17.082 1.012 -24.307 6.094 c 3.311 0.396 6.117 4.178 8.114 7.486 c 1.686 2.794 3.598 5.962 6.82 8.045 C 51.061 32.944 57.392 31.77 63.056 27.635 z" style="stroke: none; stroke-width: 1; stroke-dasharray: none; stroke-linecap: butt; stroke-linejoin: miter; stroke-miterlimit: 10; fill: rgb(128,178,43); fill-rule: nonzero; opacity: 1;" transform=" matrix(1 0 0 1 0 0) " stroke-linecap="round" />
	<path d="M 52.551 32.476 c -2.737 0 -5.402 -0.762 -7.896 -2.294 c -3.435 -2.22 -5.41 -5.491 -7.152 -8.377 c -2.683 -4.446 -5.096 -6.739 -7.377 -7.013 c -0.411 -0.049 -0.75 -0.347 -0.851 -0.748 c -0.101 -0.402 0.056 -0.824 0.395 -1.063 c 7.592 -5.339 15.904 -9.786 25.239 -6.209 c 6.851 3.225 12.263 13.183 9.077 21.231 c -0.069 0.176 -0.188 0.328 -0.34 0.439 C 59.973 31.124 56.197 32.476 52.551 32.476 z M 32.503 13.459 c 2.88 1.417 5.15 4.726 6.71 7.31 c 1.632 2.703 3.479 5.765 6.507 7.721 c 6.361 3.908 12.449 1.399 16.507 -1.491 c 2.523 -6.909 -2.305 -15.657 -8.104 -18.389 C 46.746 5.783 40.051 8.4 32.503 13.459 z M 63.056 27.635 h 0.01 H 63.056 z" style="stroke: none; stroke-width: 1; stroke-dasharray: none; stroke-linecap: butt; stroke-linejoin: miter; stroke-miterlimit: 10; fill: rgb(18,34,46); fill-rule: nonzero; opacity: 1;" transform=" matrix(1 0 0 1 0 0) " stroke-linecap="round" />
	<path d="M 35.643 84.521 C 15.989 84.521 0 68.532 0 48.878 c 0 -5.123 1.064 -10.068 3.163 -14.697 C 4.249 31.782 5.607 29.5 7.2 27.395 C 7.732 26.691 8.296 26 8.876 25.342 c 2.272 -2.583 4.898 -4.819 7.805 -6.649 c 0.467 -0.295 1.085 -0.154 1.379 0.313 c 0.294 0.467 0.154 1.085 -0.313 1.379 c -2.744 1.727 -5.223 3.839 -7.369 6.278 c -0.548 0.622 -1.08 1.274 -1.583 1.939 c -1.503 1.986 -2.785 4.141 -3.811 6.404 C 3.004 39.375 2 44.042 2 48.878 c 0 18.551 15.092 33.644 33.643 33.644 c 9.395 0 18.111 -3.775 24.542 -10.631 c 5.869 -6.256 9.102 -14.429 9.102 -23.013 c 0 -6.049 -1.776 -12.047 -5.431 -18.337 c -2.935 -5.053 -7.987 -7.819 -11.708 -9.25 c -0.516 -0.198 -0.773 -0.777 -0.575 -1.292 c 0.199 -0.515 0.78 -0.773 1.292 -0.575 c 4.022 1.546 9.493 4.556 12.721 10.112 c 3.836 6.604 5.701 12.931 5.701 19.342 c 0 9.094 -3.425 17.753 -9.643 24.382 C 54.929 80.417 45.452 84.521 35.643 84.521 z" style="stroke: none; stroke-width: 1; stroke-dasharray: none; stroke-linecap: butt; stroke-linejoin: miter; stroke-miterlimit: 10; fill: rgb(18,34,46); fill-rule: nonzero; opacity: 1;" transform=" matrix(1 0 0 1 0 0) " stroke-linecap="round" />
	<path d="M 68.604 37.827 c -1.9 -4.802 1.582 -10.642 5.287 -12.389 c 5.628 -2.156 10.618 0.629 15.109 3.788 c -2.058 0.246 -3.802 2.597 -5.044 4.654 c -1.048 1.737 -2.236 3.706 -4.24 5.001 C 76.06 41.127 72.125 40.397 68.604 37.827 z" style="stroke: none; stroke-width: 1; stroke-dasharray: none; stroke-linecap: butt; stroke-linejoin: miter; stroke-miterlimit: 10; fill: rgb(128,178,43); fill-rule: nonzero; opacity: 1;" transform=" matrix(1 0 0 1 0 0) " stroke-linecap="round" />
	<path d="M 75.127 41.215 c -2.344 0 -4.763 -0.865 -7.113 -2.581 c -0.152 -0.111 -0.271 -0.264 -0.34 -0.439 c -2.054 -5.188 1.427 -11.604 5.79 -13.661 c 6.041 -2.318 11.308 0.496 16.111 3.875 c 0.339 0.238 0.496 0.661 0.395 1.062 c -0.102 0.402 -0.439 0.7 -0.851 0.749 c -1.277 0.153 -2.727 1.559 -4.307 4.178 c -1.104 1.83 -2.355 3.903 -4.553 5.324 C 78.634 40.719 76.901 41.215 75.127 41.215 z M 69.435 37.191 c 2.427 1.7 6.018 3.135 9.759 0.837 c 1.79 -1.157 2.914 -3.021 3.906 -4.665 c 0.896 -1.484 2.161 -3.34 3.773 -4.373 c -4.388 -2.854 -8.313 -4.269 -12.625 -2.619 C 71.263 27.782 67.957 32.911 69.435 37.191 z" style="stroke: none; stroke-width: 1; stroke-dasharray: none; stroke-linecap: butt; stroke-linejoin: miter; stroke-miterlimit: 10; fill: rgb(18,34,46); fill-rule: nonzero; opacity: 1;" transform=" matrix(1 0 0 1 0 0) " stroke-linecap="round" />
	<path d="M 68.603 38.827 c -0.213 0 -0.428 -0.068 -0.61 -0.208 c -0.437 -0.337 -0.518 -0.965 -0.181 -1.402 c 1.541 -1.997 3.684 -3.773 6.368 -5.28 c 0.479 -0.271 1.091 -0.099 1.361 0.382 c 0.271 0.482 0.099 1.091 -0.383 1.362 c -2.448 1.375 -4.388 2.975 -5.763 4.757 C 69.198 38.693 68.902 38.827 68.603 38.827 z" style="stroke: none; stroke-width: 1; stroke-dasharray: none; stroke-linecap: butt; stroke-linejoin: miter; stroke-miterlimit: 10; fill: rgb(18,34,46); fill-rule: nonzero; opacity: 1;" transform=" matrix(1 0 0 1 0 0) " stroke-linecap="round" />
</g>
</svg>